<?xml version="1.0" encoding="iso-8859-1"?>
<!-- Generator: Adobe Illustrator 19.0.0, SVG Export Plug-In . SVG Version: 6.00 Build 0)  -->
<svg version="1.1" id="Capa_1" xmlns="http://www.w3.org/2000/svg" xmlns:xlink="http://www.w3.org/1999/xlink" x="0px" y="0px"
	 viewBox="0 0 512 512" style="enable-background:new 0 0 512 512;" xml:space="preserve">
<path style="fill:#FFC300;" d="M474.105,205.331c-7.482-2.204-13.154-7.722-15.565-15.14c-2.41-7.417-1.064-15.216,3.693-21.397
	c14.637-19.017,14.981-43.852,0.875-63.266c-14.107-19.416-37.832-26.762-60.441-18.719c-7.347,2.615-15.182,1.485-21.491-3.1
	c-6.309-4.583-9.805-11.684-9.589-19.481c0.664-23.989-13.656-44.283-36.479-51.699c-22.824-7.412-46.336,0.586-59.899,20.384
	c-4.408,6.433-11.409,10.124-19.209,10.124c-7.8,0-14.801-3.69-19.209-10.124c-13.563-19.799-37.076-27.8-59.899-20.384
	c-22.824,7.416-37.144,27.71-36.479,51.699c0.216,7.796-3.28,14.897-9.589,19.481c-6.31,4.584-14.144,5.715-21.491,3.101
	c-22.612-8.046-46.335-0.698-60.441,18.718c-14.107,19.415-13.763,44.249,0.875,63.267c4.758,6.179,6.104,13.979,3.693,21.396
	s-8.083,12.937-15.565,15.14C14.875,212.113,0,232.001,0,256s14.875,43.887,37.895,50.669c7.482,2.204,13.154,7.722,15.565,15.14
	c2.41,7.417,1.064,15.216-3.693,21.397c-14.637,19.017-14.981,43.852-0.875,63.266c14.106,19.416,37.831,26.761,60.441,18.719
	c7.347-2.615,15.182-1.485,21.491,3.1c6.309,4.583,9.805,11.684,9.589,19.481c-0.664,23.989,13.656,44.283,36.479,51.699
	c5.655,1.836,11.35,2.728,16.927,2.728c16.934-0.001,32.769-8.219,42.973-23.112c4.408-6.433,11.409-10.124,19.209-10.124
	c7.8,0,14.801,3.69,19.209,10.124c13.562,19.797,37.075,27.798,59.899,20.384c22.824-7.416,37.144-27.71,36.479-51.699
	c-0.216-7.796,3.28-14.897,9.589-19.481c6.309-4.584,14.143-5.717,21.491-3.101c22.61,8.044,46.334,0.698,60.441-18.718
	c14.107-19.415,13.763-44.249-0.875-63.267c-4.758-6.179-6.104-13.979-3.693-21.396c2.41-7.417,8.083-12.937,15.565-15.14
	C497.125,299.887,512,279.999,512,256S497.125,212.113,474.105,205.331z"/>
<path style="fill:#FFDC5B;" d="M256,43.036c-7.799,0-14.8-3.69-19.208-10.124c-13.563-19.799-37.076-27.8-59.899-20.384
	c-22.824,7.416-37.144,27.71-36.479,51.699c0.216,7.796-3.28,14.897-9.589,19.481c-6.31,4.584-14.144,5.715-21.491,3.101
	c-22.612-8.046-46.335-0.698-60.441,18.718c-14.107,19.415-13.763,44.249,0.875,63.267c4.758,6.179,6.104,13.979,3.693,21.396
	s-8.083,12.937-15.565,15.14C14.875,212.113,0,232.001,0,256s14.875,43.887,37.895,50.669c7.482,2.204,13.154,7.722,15.565,15.14
	c2.41,7.417,1.064,15.216-3.693,21.397c-14.637,19.017-14.981,43.852-0.875,63.266c14.106,19.416,37.831,26.761,60.441,18.719
	c7.347-2.615,15.182-1.485,21.491,3.1c6.309,4.583,9.805,11.684,9.589,19.481c-0.664,23.989,13.656,44.283,36.479,51.699
	c5.655,1.836,11.35,2.728,16.927,2.728c16.934-0.001,32.769-8.219,42.973-23.112c4.408-6.433,11.409-10.124,19.208-10.124V43.036
	H256z"/>
<path style="fill:#FF8800;" d="M236.3,339.692c-3.093,0-6.204-0.966-8.854-2.954l-78.769-59.077
	c-6.525-4.895-7.848-14.152-2.954-20.677c4.895-6.524,14.152-7.846,20.677-2.954l67.699,50.774l109.149-127.339
	c5.308-6.193,14.632-6.911,20.825-1.602c6.193,5.309,6.911,14.631,1.602,20.825L247.52,334.534
	C244.612,337.93,240.474,339.692,236.3,339.692z"/>
<path style="fill:#FFA500;" d="M256,279.255l-21.9,25.55l-67.7-50.774c-6.525-4.893-15.782-3.57-20.677,2.954
	c-4.895,6.525-3.571,15.782,2.954,20.677l78.769,59.077c2.65,1.988,5.762,2.954,8.854,2.954c4.174,0,8.311-1.762,11.221-5.157
	l8.48-9.891V279.255z"/>
<g>
</g>
<g>
</g>
<g>
</g>
<g>
</g>
<g>
</g>
<g>
</g>
<g>
</g>
<g>
</g>
<g>
</g>
<g>
</g>
<g>
</g>
<g>
</g>
<g>
</g>
<g>
</g>
<g>
</g>
</svg>
